<?xml version="1.0" encoding="UTF-8"?>
<svg id="Layer_1" data-name="Layer 1" xmlns="http://www.w3.org/2000/svg" viewBox="0 0 31.45 31.27">
  <path d="M31.2,12.34c-.26.66-.65,1.04-1.37,1.13-1.05.13-3.25.1-4.33.02-.62-.05-1.25-.39-1.45-1.03-.01-.05-.09-.43-.09-.45v-1.36h-4.31c-.3,0-.48-.45-.36-.72.01-.03.22-.24.24-.24h4.43v-1.96c0-.57.62-1.48,1.24-1.48h1.9c.12-.91-.24-1.72-1.18-1.93h-15.08c-.61-.04-.64-.99,0-.97h15.14c.82,0,2.08,1.17,2.08,1.96v.94c1.23.03,2.65-.33,3.14,1.15v4.95ZM30.1,7.35c-.07-.07-.27-.13-.37-.14-1.36.1-2.89-.12-4.23,0-.25.02-.48.11-.51.39.1,1.41-.11,2.95-.02,4.35.03.47.24.54.66.57,1.03.08,2.97.1,3.99,0,.4-.04.6-.16.63-.57.12-1.34-.1-2.87,0-4.23-.01-.1-.07-.31-.14-.37Z" fill="currentColor" stroke="currentColor" stroke-width="0"/>
  <path d="M31.2,25.07v4.89c-.2.57-.57.94-1.15,1.15h-4.89c-.45-.16-.93-.44-1.09-.93-.03-.09-.12-.48-.12-.55v-1.42h-1.18s-.23-.21-.24-.24c-.11-.25.03-.72.3-.72h1.12v-1.9c0-.2.17-.67.3-.84s.61-.57.81-.57h2.02v-.87c0-.49-.86-1.19-1.36-1.17l-6.32-.02c-.51-.13-.45-.87.05-.95,2.02.11,4.21-.16,6.21,0,.82.06,1.6.44,2.03,1.17.09.15.35.72.35.86v.9c.04.06.08.08.15.09.71.13,1.62-.21,2.29.18.38.22.54.58.69.97ZM25.45,24.84c-.28.07-.43.12-.47.44-.16,1.38.12,3.06,0,4.47.03.28.26.37.51.39,1.36.13,2.91-.1,4.29,0,.33-.04.43-.21.45-.51.12-1.36-.1-2.91,0-4.29-.05-.41-.33-.48-.69-.51-1.3-.11-2.77.07-4.09.02Z" fill="currentColor" stroke="currentColor" stroke-width="0"/>
  <path d="M17.33,10.89c.66.2,1.21.6,1.77.97.5-.04,1.37-.75,1.78-.32.12.12.87,1.44.95,1.63.27.69-.79,1.01-1.12,1.51.06.5.06,1,.05,1.5,0,.14-.08.29-.06.42.04.34,1.27.82,1.2,1.37-.02.13-.78,1.47-.91,1.63-.54.72-1.08,0-1.74-.12-.3-.06-.69.36-.99.53s-.62.31-.94.42c-.13.53,0,1.66-.7,1.74-.31.04-1.58.05-1.86-.01-.6-.13-.42-1.32-.67-1.74-.61-.23-1.16-.59-1.69-.96-.47.04-1.37.7-1.76.34-.08-.07-.25-.42-.33-.54-.15-.24-.72-1.19-.71-1.39.03-.41.96-.88,1.19-1.22-.06-.5-.06-1-.05-1.5,0-.14.08-.29.06-.42-.04-.33-1.29-.83-1.2-1.38.02-.12.97-1.79,1.06-1.86.43-.33,1.24.32,1.73.36.54-.37,1.08-.73,1.69-.96.25-.41.09-1.56.63-1.73.24-.07,1.54-.06,1.85-.03.79.07.61,1.16.76,1.74ZM16.23,10.12h-.95c-.06.05-.16,1.06-.23,1.25-.15.44-.8.49-1.19.68-.32.16-1.08.86-1.29.88-.26.02-1.32-.52-1.4-.47l-.43.81c.17.33,1.06.77,1.09,1.14.02.24-.11.62-.13.9-.04.59.09,1.11.11,1.68l-1.07,1.04.42.82c.06.04,1.11-.45,1.31-.47.29-.02,1.03.7,1.38.88.43.22,1.05.22,1.2.73.05.17.15,1.19.24,1.21h.92c.06-.06.16-1.07.23-1.26.15-.44.8-.49,1.19-.68.29-.15,1.11-.86,1.23-.88.28-.05,1.4.52,1.46.47.03-.31.56-.7.34-.97s-.98-.64-1.01-.99c-.02-.24.11-.62.13-.9.04-.59-.09-1.11-.11-1.68l1.07-.99-.42-.86c-.06-.04-1.09.45-1.31.47-.28.02-1.02-.7-1.38-.88-.3-.15-.9-.26-1.08-.49-.24-.31-.19-1.06-.34-1.44Z" fill="currentColor" stroke="currentColor" stroke-width="0"/>
  <path d="M3.45,12.55c.17-1.47,1.59-2.75,3.04-2.87,1.8-.14,3.79.11,5.61,0,.56.09.53.87-.01.95-1.79.14-3.77-.14-5.54.01-.91.08-2.14,1.06-2.14,2.02v5.16h1.78c.14,0,.56.18.69.28.86.6.67,1.81.63,2.71l.07.09h4.22c.19,0,.39.32.4.51,0,.16-.19.45-.34.45h-4.31v1.72s-.07.41-.09.45c-.17.55-.72.95-1.28,1.02-1.44-.09-3.1.15-4.52,0-.68-.07-1.28-.6-1.36-1.3-.16-1.45.12-3.21,0-4.7.08-.59.76-1.24,1.35-1.24h1.78v-5.28ZM1.41,23.97c.07.07.27.13.37.14.95.11,3.2.09,4.17,0,.41-.04.58-.14.6-.58.05-1.18.08-3.07-.02-4.23-.01-.14-.02-.25-.12-.36-.23-.24-1.67-.15-2.09-.15-.73,0-1.77-.08-2.47,0-.37.04-.54.2-.58.57-.12,1.34.1,2.87,0,4.23.01.1.07.31.14.37Z" fill="currentColor" stroke="currentColor" stroke-width="0"/>
  <path d="M7.55,3.35h1.18c.13,0,.32.32.33.45,0,.17-.24.51-.39.51h-1.12v1.66s-.09.41-.12.49c-.18.54-.68.89-1.24.93-1.55.12-3.25-.08-4.81-.02-.67-.25-1.02-.68-1.07-1.4-.11-1.46.08-3.05,0-4.52C.45.79.98.28,1.67.21c1.46-.13,3.15.09,4.63.02.53.09,1.01.48,1.16,1.01.02.06.09.42.09.45v1.66ZM1.62,1.2c-.22.07-.32.22-.35.44-.16,1.34.12,2.97,0,4.35.05.45.38.49.75.51,1.03.07,2.84.09,3.87,0,.39-.03.6-.1.63-.51.13-1.4-.1-2.99,0-4.41-.01-.23-.24-.38-.45-.39H1.62Z" fill="currentColor" stroke="currentColor" stroke-width="0"/>
  <path d="M15.33,28.21c.33.45,1.98,1.05,1.48,1.75-.22.3-.49.18-.75.03-.86-.5-1.69-1.37-2.57-1.9-.23-.21-.17-.51.01-.73.89-.48,1.77-1.47,2.64-1.93.49-.26.87.07.72.6l-1.54,1.21h5.58c.19,0,.39.32.4.51,0,.16-.19.45-.34.45h-5.64Z" fill="currentColor" stroke="currentColor" stroke-width="0"/>
  <path d="M27.39,10.23l1.09-1.78c.42-.37.93.03.75.57-.11.32-.97,1.64-1.21,1.99-.22.31-.3.48-.75.34-.09-.03-1.13-.7-1.21-.78-.4-.41-.05-.93.5-.8.18.04.72.54.82.47Z" fill="currentColor" stroke="currentColor" stroke-width="0"/>
  <path d="M26.03,27.5c.41-.45.94.25,1.33.34.14-.04.91-1.67,1.15-1.81.44-.26.9.13.71.65-.1.26-1.05,1.8-1.25,2.06-.14.17-.29.33-.52.3-.15-.02-1.22-.7-1.35-.83-.21-.22-.3-.45-.07-.71Z" fill="currentColor" stroke="currentColor" stroke-width="0"/>
  <path d="M15.5,12.78c3.52-.33,4.36,4.9.92,5.68-3.99.91-4.95-5.31-.92-5.68ZM15.56,13.75c-2.41.23-2.18,3.88.22,3.85,2.59-.04,2.42-4.1-.22-3.85Z" fill="currentColor" stroke="currentColor" stroke-width="0"/>
  <path d="M5.12,19.9c.28-.01.58.31.48.59l-1.45,2.41c-.21.15-.36.12-.57.03-.12-.05-1.19-.75-1.24-.81-.31-.43.09-.9.57-.76.19.06.62.51.78.43.17-.09.85-1.48,1.06-1.72.07-.07.27-.16.37-.17Z" fill="currentColor" stroke="currentColor" stroke-width="0"/>
  <path d="M4.15,5.27c-.36.3-1.32-.4-1.63-.66-.27-.22-.47-.6-.12-.84.43-.3.87.26,1.26.42.12,0,.91-1.57,1.11-1.77.39-.37.95.03.8.5l-1.42,2.35Z" fill="currentColor" stroke="currentColor" stroke-width="0"/>
</svg>