<?xml version="1.0" encoding="UTF-8"?>
<svg id="Layer_1" data-name="Layer 1" xmlns="http://www.w3.org/2000/svg" viewBox="0 0 31.45 31.27">
  <path d="M13.46,8.1l-8.57,1.23,3.07,10.35c.2,5.36-7.47,5.68-7.87.34l3.41-11.57.27-.29,9.69-1.37c0-1.03-.16-1.96.57-2.78-.13-.42-.47-.68-.55-1.15-.43-2.53,2.58-3.87,4.08-1.91.41.54.51,1.16.41,1.83-.07.51-.41.78-.56,1.23.53.65.65,1.29.57,2.12l9.61-1.28c.41.13.49.64.61.99,1.21,3.59,2.03,7.35,3.16,10.98-.41,5.24-7.8,5.06-7.91-.19l3.01-10.31-8.47,1.13v15.92c1.93-.08,3.86,1.32,4.05,3.3.68.11,3.26-.21,3.67.14.15.13.17.29.19.47.13,1.09-.08,2.44-.02,3.56l-.38.37-19.15.08c-.24.03-.65-.17-.75-.38s-.1-3.22-.05-3.63.2-.56.61-.61c1.01-.12,2.22.09,3.25,0,.19-1.97,2.12-3.37,4.05-3.3v-15.26ZM16.45,1.63c-.86-.93-2.28.42-1.48,1.34.87,1,2.37-.38,1.48-1.34ZM16.67,23.35V5.32c0-.3-.59-.61-.89-.62-.34-.01-.99.27-.99.62v18.04h1.88ZM29.76,16.01l-2.45-8.1-2.26,8.1h4.71ZM6.4,19.3l-2.26-8.1-2.45,8.1h4.71ZM29.85,17.33h-4.99c.61,2.62,4.52,2.66,4.99,0ZM6.59,20.62H1.5c.73,2.64,4.39,2.63,5.09,0ZM20.72,26.65c-.26-1.19-1.32-1.89-2.49-1.98-1.09-.09-4.9-.14-5.79.15-.79.25-1.55,1-1.7,1.84h9.98ZM24.58,27.97H6.87v1.98h17.71v-1.98Z"/>
</svg>