<?xml version="1.0" encoding="UTF-8"?>
<svg id="Layer_1" data-name="Layer 1" xmlns="http://www.w3.org/2000/svg" viewBox="0 0 31.45 31.27">
  <path d="M8.35,30.55c-.07.33-.58.43-.86.46-2.05.18-4.36-.14-6.44,0-.53-.06-.77-.32-.79-.86.24-4.05-.31-8.46,0-12.47.03-.39.08-.82.54-.87,2.23.19,4.83-.24,7.02,0,.24.03.54.2.54.45v1.61c1.56.1,3.29-.14,4.83,0,.48.04,1.01.24,1.42.48,1.09.65,1.21,2.01,2.71,2.16,1.76.18,3.81-.54,4.63,1.66l6.85-1.32c2.34-.4,3.51,2.56,1.35,3.75-4.15,1.43-8.16,4.31-12.59,4.58l-9.2-1.32c-.07.49.1,1.24,0,1.69ZM7.2,17.96H1.5v11.76l.12.12h5.45l.12-.12v-11.76ZM13.27,20.03h-4.91v7.68l9.29,1.32c.92.03,1.82-.15,2.68-.45,2.7-.97,6.29-2.56,8.89-3.82.21-.1.59-.25.73-.43.54-.72-.19-1.49-.99-1.32l-7.04,1.33c-.25.93-.92,1.62-1.88,1.8h-8.07c-.51-.28-.41-1.04.17-1.13l7.73-.02c1.36-.48,1.38-2.14-.24-2.31s-2.83.39-4.25-.78c-.73-.61-.97-1.7-2.1-1.86Z"/>
  <path d="M19.89.24c7.03-.58,11.88,6.93,8.4,13.1-3.32,5.88-11.9,5.92-15.25.05C9.86,7.82,13.51.76,19.89.24ZM19.98,1.4c-5.82.51-8.91,7.15-5.58,11.97,3.07,4.44,9.7,4.3,12.65-.2,3.48-5.31-.77-12.33-7.07-11.77Z"/>
  <path d="M21.24,4.58c.05.05.85.28,1.18.68.38.45.95,1.77.13,2.02-.69.21-.69-.54-.82-.92-.44-1.21-2.56-.81-2.2.71.22.95,1.4.97,2.11,1.35,1.63.87,1.82,3.09.21,4.09-.15.09-.59.23-.61.26-.11.18.17,1-.63.98-.73,0-.43-.8-.55-.98-.02-.03-.56-.19-.73-.31-.58-.39-1.19-1.39-.96-2.1.15-.47.89-.41,1.08,0,.07.17.04.37.1.56.41,1.23,2.53.84,2.22-.65-.21-.98-1.32-.98-2.05-1.34-1.69-.84-1.94-3.2-.23-4.15.15-.08.55-.19.57-.21.13-.15-.25-1.12.7-.98.69.1.36.86.47.98Z"/>
</svg>