<?xml version="1.0" encoding="UTF-8"?>
<svg id="Layer_1" data-name="Layer 1" xmlns="http://www.w3.org/2000/svg" viewBox="0 0 31.45 31.27">
  <path d="M31.28,2.9v24.8c-.29,1.03-.94,1.62-2.03,1.7H2.2c-1.14-.09-1.91-.77-2.04-1.91V3.18c.08-1.18.93-1.94,2.1-1.98h27.05c1.05.09,1.71.7,1.98,1.7ZM30.07,5.7v-2.64c0-.33-.67-.71-1-.64H2.32c-.31-.05-.94.33-.94.64v2.64h28.69ZM30.07,6.92H1.38v20.63c0,.31.63.69.94.64h26.75c.33.07,1-.31,1-.64V6.92Z"/>
  <path d="M14.39,20.83h.88c.53,0,.78,1.1.06,1.21l-11.74-.04c-.77-.62-.05-1.35.77-1.17v-5.2s.19-.32.24-.36c.1-.07.33-.13.46-.15.65-.08,2.06-.07,2.73,0,.17.01.44.06.57.16.08.06.24.35.24.42v5.14h1.52v-9.09s.19-.32.24-.36c.11-.08.2-.08.33-.1,1.02-.09,2.18.07,3.22,0,.17-.03.46.35.46.45v9.09ZM13.17,12.51h-1.82v8.33h1.82v-8.33ZM7.4,20.83v-4.41l-.09-.09h-1.64l-.09.09v4.41h1.82Z"/>
  <path d="M22.82,9.24c3.67-.26,6.17,3.72,4.4,6.95s-6.41,3.2-8.19.02c-1.68-3.02.37-6.74,3.79-6.97ZM22.53,10.5c-1.52.28-2.76,1.57-2.86,3.13-.18,2.73,2.56,4.59,5.03,3.39.08-.04.42-.19.38-.28l-2.55-2.62v-3.62ZM23.75,10.5v3.19l2.22,2.22c1.45-2.09.23-4.91-2.22-5.41Z"/>
  <path d="M6.27,24.44c.06-.05.14-.09.21-.13l20.98.02c.54.27.45.99-.13,1.14l-20.5.04c-.59.03-1-.63-.55-1.08Z"/>
  <path d="M18.6,21.04c.12-.13.39-.19.56-.2,2.52-.24,5.41.18,7.96,0,.91.1.86,1.14.18,1.22h-8.33c-.49-.02-.69-.68-.37-1.02Z"/>
  <path d="M3.67,24.31c.96-.22,1.06,1.1.28,1.19-.74.09-.93-1.04-.28-1.19Z"/>
  <path d="M5.62,3.52c.72-.12.93,1.04.28,1.19-.97.22-1.07-1.06-.28-1.19Z"/>
  <path d="M2.92,3.71c.47-.5,1.38.1.95.74-.51.76-1.52-.13-.95-.74Z"/>
  <path d="M7.66,4.59c-.55-.49.14-1.36.74-.95.74.5-.11,1.52-.74.95Z"/>
</svg>