<?xml version="1.0" encoding="UTF-8"?>
<svg id="Layer_1" data-name="Layer 1" xmlns="http://www.w3.org/2000/svg" viewBox="0 0 31.45 31.27">
  <path d="M31.15,19.88c.02-.26-.37-.6-.59-.6h-5.05V3.06c0-1.44-1.5-2.82-2.92-2.85-6.52.05-13.06-.11-19.56.08C1.81.56.84,1.44.5,2.65c-.25.88-.26,3.78-.16,4.74.02.19.19.66.41.66h5.24v10.1s-.04-.04-.06-.07c-.23-.4-.64-.67-1.13-.67h-2.67c-1,0-1.81.81-1.81,1.81v4.83l-.02,3.49c0,.1.02.18.02.27v1.07c0,1,.81,1.81,1.81,1.81h2.67c.51,0,.93-.3,1.15-.71.04-.02.08-.04.12-.04,1.72.43,3.42.99,5.21,1.07,1.29.06,3.53.13,4.77,0,1.4-.16,2.2-1.71,1.55-2.97.33-.24.56-.51.79-.84h9.66c3.83-.59,3.07-4.44,3.1-7.32ZM4.8,29.39h-2.55c-.47,0-.85-.38-.85-.85v-8.96c0-.47.38-.85.85-.85h2.55v10.67ZM5.99,6.79H1.66v-3.61c0-.11.23-.58.3-.7.82-1.42,3.01-1.37,3.78.07.06.1.25.55.25.63v3.61ZM15.5,21.61c-.48.07-.68.55-.49.98.23.55,1.9.27,2.43.33.75.09.8,1.29,0,1.38-.81.1-1.9-.13-2.69.01-.49.09-.67.65-.39,1.05.34.47,1.81.17,2.39.25.72.1.77,1.29,0,1.38-.81.1-1.9-.13-2.69.01-.46.08-.68.58-.45.98.45.78,2.65-.19,2.95.75.14.45-.11.88-.57.95-2.4-.05-4.7.19-7.05-.36-.95-.22-1.87-.57-2.83-.78l.02-8.91c.06-.13,1.91-.98,2.22-1.17,1.08-.66,2.01-1.67,2.61-2.79.42-.78.92-2.55,1.42-3.1.48-.52,1.27-.19,1.37.5.21,1.52-.07,3.71-.85,5.04-.25.43-.89,1.02-.84,1.48.03.35.33.56.66.6,1.65.19,3.64-.14,5.33,0,.64.12.76,1.18.1,1.35-.71.18-1.9-.08-2.66.03ZM18.54,25.87l-.18-.62c.98-.51,1.22-1.87.62-2.77,1.22-.75,1.08-2.78-.2-3.41-.13-.06-.54-.23-.65-.23h-4.24c.15-.37.38-.7.53-1.07.48-1.16.6-2.39.6-3.64h6.18s.27-.27.3-.33c.14-.34.04-.77-.34-.88l-6.1-.05-.07-.05c-.26-1.23-1.41-2.08-2.67-1.73-1.43.4-1.88,2.61-2.49,3.79-.57,1.1-1.43,2.1-2.6,2.58V3.24c0-.11-.13-.57-.17-.71-.13-.41-.35-.79-.58-1.14h16.29c.57,0,1.47.93,1.48,1.54v20.9c.05.77.36,1.4.75,2.04h-6.46ZM29.9,24.14c0,.1-.2.56-.26.68-.78,1.4-2.8,1.47-3.72.17-.07-.1-.35-.71-.35-.78v-3.61h4.33v3.55Z"/>
  <path d="M21.04,9.22l-10-.05c-.55.04-.7.78-.32,1.11.1.09.31.15.45.15l9.87-.05c.46-.25.46-.9,0-1.16Z"/>
  <path d="M11.92,6.66c2.45-.18,5.25.24,7.66,0,.79-.08.98-.87.32-1.26l-8.15-.04c-.82.21-.65,1.26.17,1.3Z"/>
</svg>