<?xml version="1.0" encoding="UTF-8"?>
<svg id="Layer_1" data-name="Layer 1" xmlns="http://www.w3.org/2000/svg" viewBox="0 0 31.45 31.27">
  <path d="M14.73.24c11.49-.74,19.8,11,15.16,21.61-4.73,10.82-19.47,12.5-26.54,3.01C-3.96,15.08,2.63,1.01,14.73.24ZM14.8,1.47C3.9,2.2-2.19,14.57,4,23.67c5.85,8.59,18.79,8.14,24.01-.85C33.73,12.99,26.11.71,14.8,1.47Z"/>
  <path d="M23.65,13.81l-6.74,4.51c-3.56,1.36-5.77-3.44-2.45-5.29l8.35-1.41c-2.31-4.03-7.54-5.36-11.48-2.81s-4.94,7.91-2.14,11.67c.42.56,1.31,1.07.8,1.81-.27.39-2.13,2.23-2.53,2.54-.29.22-.55.32-.89.11-.12-.07-.74-.79-.88-.96C-2.05,14.75,6.01.84,17.91,2.77c9.83,1.59,14.32,13.53,7.89,21.21-.14.16-.77.89-.89.95-.39.2-.61.1-.91-.14-.43-.34-2.21-2.08-2.49-2.5-.48-.7.11-.94.46-1.38,1.61-2.05,2.35-4.51,1.69-7.1ZM15.13,6.24v-2.42c-.76.11-1.53.19-2.28.37-1.14.28-2.25.75-3.25,1.36-.62.38-1.16.87-1.77,1.26l1.79,1.76c1.48-1.28,3.4-2.14,5.38-2.23l.13-.1ZM16.36,3.82v2.42l.13.1c1.98.09,3.89.95,5.38,2.23l1.79-1.76c-.6-.4-1.15-.88-1.77-1.26-1.09-.67-2.42-1.22-3.68-1.47-.61-.12-1.23-.16-1.85-.27ZM3.91,15.04h2.42l.1-.13c.09-1.98.95-3.9,2.23-5.38l-1.76-1.79c-.41.6-.88,1.15-1.26,1.77-.67,1.1-1.21,2.41-1.47,3.68-.12.61-.16,1.23-.27,1.85ZM27.57,15.04c-.11-.76-.19-1.53-.37-2.28-.28-1.14-.75-2.25-1.36-3.25-.38-.62-.86-1.17-1.26-1.77l-1.76,1.79c.49.57.95,1.18,1.24,1.88.53.11,1.64-.5,1.87.24.26.81-.8.94-1.18,1.43l.31,1.82.1.13h2.42ZM22.58,12.97l-7.6,1.19c-1.83,1.03-.69,3.69,1.32,3.09l6.28-4.28ZM6.37,16.27h-2.46c.11.46.1.93.18,1.4.36,2.19,1.4,4.24,2.86,5.9l1.72-1.79c-1.39-1.5-2.1-3.49-2.3-5.5ZM27.57,16.27h-2.46c-.2,2.01-.91,4.01-2.3,5.5l1.72,1.79c1.82-2.02,2.83-4.58,3.03-7.3Z"/>
</svg>