<?xml version="1.0" encoding="UTF-8"?>
<svg id="Layer_1" data-name="Layer 1" xmlns="http://www.w3.org/2000/svg" viewBox="0 0 31.45 31.27">
  <path d="M14.58,6.64c.46-.07,1.69-.07,2.16-.02.74.08,1.36.71,1.44,1.44.03.29-.13,1.05.19,1.15.44.13.7-.42,1.01-.65.56-.42,1.37-.47,1.96-.07.24.17,1.37,1.3,1.55,1.54.4.55.4,1.35,0,1.9-.21.29-.98.73-.7,1.12.15.2.73.09,1,.12.64.07,1.17.34,1.44.95.23.51.23,2.43.02,2.96-.26.67-.85.93-1.53,1-.32.03-.95-.15-1.01.26-.05.33.61.74.79,1.01.37.54.35,1.33-.03,1.86-.17.24-1.31,1.38-1.55,1.54-.66.45-1.38.37-2-.1-.29-.22-.58-.81-1.02-.6-.25.12-.11.96-.16,1.25-.11.64-.72,1.22-1.36,1.31-.44.06-1.73.06-2.17,0-.76-.1-1.3-.77-1.38-1.51-.03-.27.12-.98-.19-1.07-.46-.14-.81.56-1.22.79-.6.33-1.23.3-1.79-.1-.26-.19-1.33-1.25-1.51-1.51-.4-.55-.4-1.35,0-1.9.21-.29.98-.73.7-1.12-.15-.2-.73-.09-1-.12-.65-.07-1.21-.36-1.46-1-.2-.51-.2-2.4,0-2.91.26-.67.85-.93,1.53-1,.32-.03.95.15,1.01-.26.05-.33-.61-.74-.79-1.01-.37-.54-.35-1.33.03-1.86.18-.25,1.26-1.33,1.51-1.51.55-.4,1.41-.4,1.97,0,.32.23.63.9,1.09.67.23-.11.12-.95.17-1.23.11-.64.64-1.21,1.29-1.31ZM16.83,7.98c-.13-.13-2.01-.13-2.19-.02-.2.13-.09.96-.12,1.23-.15,1.14-1.59,1.69-2.52,1.06-.27-.18-.68-.84-1.01-.79-.12.02-1.31,1.14-1.39,1.29-.3.51.44.83.71,1.2.65.9.06,2.34-1.02,2.49-.37.05-1.27-.16-1.36.32-.05.25-.04,1.42,0,1.69.08.58.93.33,1.37.39,1.09.15,1.67,1.59,1.02,2.49-.26.37-1,.68-.71,1.2.1.16,1.29,1.29,1.44,1.29.27,0,.71-.63.95-.8.92-.64,2.37-.08,2.52,1.06.04.27-.08,1.1.12,1.23.18.11,2.05.11,2.19-.02.16-.16.06-.93.09-1.21.15-1.07,1.4-1.61,2.34-1.16.36.18.91,1,1.23.87.12-.05,1.27-1.14,1.34-1.26.32-.54-.7-.98-.9-1.57-.3-.87.28-1.99,1.22-2.12.37-.05,1.27.16,1.36-.32.05-.25.04-1.42,0-1.69-.08-.58-.93-.33-1.37-.39-1.09-.15-1.67-1.59-1.02-2.49.26-.37,1-.68.71-1.2-.05-.09-1.04-1.07-1.16-1.16-.09-.06-.16-.13-.28-.14-.28,0-.7.63-.95.8-.96.66-2.4.06-2.53-1.12-.03-.27.08-.98-.09-1.14Z"/>
  <path d="M19.24,28.83c-.12.13.81.78.91.88.34.32.68.56.35,1.06-.36.54-.86.16-1.23-.11-.46-.34-1.77-1.38-2.1-1.76-.21-.25-.26-.49-.1-.79l2.17-2.53c.39-.22.95.03.98.49.03.43-.66,1-.91,1.33-.04.05-.14.12-.03.18,4.35-1.3,7.8-4.81,8.9-9.23.11-.42.21-1.68.53-1.86.5-.28,1.02.09,1.01.65-.02.5-.28,1.46-.42,1.97-1.3,4.7-5.29,8.62-10.04,9.74Z"/>
  <path d="M29.43,12.18l.81-1.4c.52-.74,1.5-.23,1.12.63-.26.6-1.04,1.89-1.41,2.45-.27.4-.44.61-.96.41-.38-.15-2.45-1.31-2.73-1.56s-.36-.52-.14-.85c.43-.64,1.38.12,1.86.39.05.03.12.15.18.03-1.02-4.13-4.22-7.62-8.26-8.96-.46-.15-1.98-.42-2.22-.6-.43-.31-.29-1,.21-1.13.28-.07.96.12,1.28.2,5.05,1.24,9.09,5.3,10.25,10.38Z"/>
  <path d="M12.07,3.18c-4.16,1.2-7.53,4.61-8.68,8.78-.11.41-.25,1.52-.39,1.78-.3.54-1.25.37-1.18-.55.22-2.85,2.45-6.44,4.56-8.3,1.51-1.33,3.32-2.27,5.2-2.95-.51-.28-1.9-.39-1.9-1.12,0-.55.47-.65.92-.57s2.49.82,2.9,1.04c.24.13.44.41.37.69-.42.9-.63,2.08-1.06,2.95-.37.76-1.38.42-1.21-.44.03-.18.53-1.27.48-1.32Z"/>
  <path d="M3.29,18.15c.83,4.1,4,7.63,7.9,9.07.46.17,1.81.46,2.07.67.4.32.2.97-.26,1.07-.42.09-1.73-.36-2.18-.53-4.35-1.57-7.81-5.47-8.8-10l-.99,1.3c-.57.45-1.32-.1-.92-.85.19-.37,1.55-2.24,1.84-2.52.35-.34.53-.27.91-.06.48.26,2.04,1.36,2.42,1.73.48.48.26,1.17-.41,1.15-.42-.01-1.18-.81-1.58-1.02Z"/>
  <path d="M15.36,12.13c4.16-.46,5.46,5.6,1.42,6.83-4.91,1.5-6.48-6.28-1.42-6.83ZM15.43,13.39c-2.88.38-2.39,4.7.47,4.48,3.02-.24,2.56-4.88-.47-4.48Z"/>
</svg>