<?xml version="1.0" encoding="UTF-8"?>
<svg id="Layer_1" data-name="Layer 1" xmlns="http://www.w3.org/2000/svg" viewBox="0 0 31.45 31.27">
  <path d="M8.96,22.07h3.34l-5.29,8.84L1.66,22.07h3.34v-10.11C5.63,1.76,17.82-3.48,25.59,3.43c5.47,4.87,3.94,11.18,4.14,17.75-.19,2.5-3.75,2.47-3.96.06-.48-5.6,1.8-12.11-3.96-15.7-5.44-3.39-12.41.32-12.86,6.61v9.92ZM7.97,23.06v-10.97c.45-6.22,6.64-10.38,12.58-8.26,3.48,1.24,5.98,4.56,6.21,8.26.19,3-.15,6.18.02,9.2.29,1.13,1.86,1.03,1.97-.17-.3-5.43,1.18-10.9-2.45-15.49C19.76-2.63,6.66,1.7,5.99,12.02v11.04h-2.6l3.62,5.94,3.56-5.94h-2.6Z"/>
  <path d="M21.92,20.2c-3.09,3.09-8.43,2.22-10.33-1.72-2.49-5.17,2.45-10.76,7.87-8.92,4.46,1.51,5.8,7.3,2.45,10.64ZM16.86,10.22c-4.22.37-6.38,5.29-3.85,8.69,2.27,3.05,6.93,2.83,8.96-.37,2.42-3.82-.63-8.72-5.11-8.32Z"/>
  <path d="M27.49,24.07c2.02-.32,2.37,2.71.47,2.95s-2.3-2.66-.47-2.95ZM27.61,25.05c-.57.12-.44,1.12.28.96.57-.12.44-1.12-.28-.96Z"/>
  <path d="M27.49,28.02c2.02-.32,2.37,2.71.47,2.95s-2.3-2.66-.47-2.95ZM27.61,29.01c-.57.12-.44,1.12.28.96.57-.12.44-1.12-.28-.96Z"/>
  <path d="M17.86,11.19v1.02c.84.32,1.49,1,1.48,1.95h-.99c-.06-1.46-2.19-1.21-1.96.2.14.85.91.71,1.5.85,1.09.28,1.71,1.47,1.36,2.53-.22.68-.76,1.06-1.39,1.33v1.02h-.99v-1.02c-.84-.32-1.49-1-1.48-1.95h.99c.06,1.45,2.2,1.23,1.96-.2-.14-.85-.91-.71-1.5-.85-1.24-.31-1.82-1.76-1.21-2.87.28-.52.72-.75,1.24-.99v-1.02h.99Z"/>
  <rect x="12.91" y="15.15" width=".99" height=".99"/>
  <rect x="20.83" y="15.15" width=".99" height=".99"/>
</svg>