<?xml version="1.0" encoding="UTF-8"?>
<svg id="Layer_1" data-name="Layer 1" xmlns="http://www.w3.org/2000/svg" viewBox="0 0 31.45 31.27">
  <path d="M18.38,20.74c-.3,1.6.92,1.08,1.96,1.16,2.24.19,4.09,2.07,4.26,4.31.11,1.47-.08,3.06,0,4.55,0,.21-.13.38-.32.46H7.26c-.25-.11-.3-.27-.32-.52-.1-1.12-.11-4.12.11-5.15.43-1.97,2.2-3.49,4.21-3.65,1.02-.08,2.22.43,1.88-1.17-2.23-1.08-3.58-3.93-2.98-6.35,1.48-5.87,9.73-5.88,11.21,0,.61,2.42-.76,5.28-2.99,6.36ZM19.21,12.54c-1.72-2.08-5.16-2.07-6.88,0h6.88ZM12.38,13.59c-1.39.29-1.73,2.21-.47,2.91.68.38,1.82.12,2.59.18.39-.24.83-1.05,1.31-1.03.42.02.89.81,1.25,1.03.74-.05,1.83.18,2.5-.13,1.36-.64,1.05-2.74-.45-2.95h-6.72ZM20.06,17.48c-.32.07-.61.23-.94.26-.5.05-1.93.07-2.4,0-.35-.06-.81-.8-.97-.77-.28.19-.58.72-.92.77-.71.11-1.66-.07-2.4,0l-.94-.23c1.6,3.74,7.01,3.75,8.57-.03ZM7.98,26.14v4.06h2.08v-3.12h1.04v3.12h9.35v-3.12h1.04v3.12h2.08v-4.06c0-.95-.98-2.24-1.77-2.71-1.19-.71-1.93-.36-3.12-.51-.83-.11-1.39-.95-1.37-1.75-1.04.27-2.05.24-3.08,0,.05.54-.14,1.01-.55,1.36-.7.61-1.44.32-2.28.39-1.69.13-3.22,1.5-3.41,3.22Z"/>
  <path d="M25.11.09c4.58-.41,7.78,4.48,5.52,8.51-1.99,3.56-7.11,3.91-9.56.62-2.66-3.58-.39-8.74,4.04-9.13ZM25.12,1.18c-3.16.29-5.04,3.66-3.73,6.56.07.16.47.94.64.91l3.09-3.08V1.18ZM30.25,5.27c-.14-2.11-1.99-3.95-4.09-4.09v4.09h4.09ZM30.25,6.31h-4.38l-3.08,3.14c2.76,2.32,7.19.41,7.46-3.14Z"/>
  <path d="M.56.09h9.65c.2.06.34.21.37.41.05.32.06,2.03-.01,2.32-.05.21-.26.37-.47.37l-9.53-.02c-.2-.06-.34-.21-.37-.41-.07-.43-.05-1.68,0-2.14.02-.27.09-.45.37-.53ZM9.54,1.11H1.23v1.04h8.31v-1.04Z"/>
  <path d="M.56,8.4l6.58.02c.17.07.29.21.32.4.05.29.05,2.14-.03,2.37-.06.19-.26.32-.46.32l-6.47-.03c-.17-.07-.29-.21-.32-.4-.07-.43-.05-1.68,0-2.14.02-.27.09-.45.37-.53ZM6.42,9.42H1.23v1.04h5.19v-1.04Z"/>
  <path d="M.56,4.24c1.37.07,2.92-.14,4.27-.02.33.03.51.14.55.49.05.46.05,1.69,0,2.15-.03.29-.19.47-.49.49-1.34-.1-2.84.12-4.16,0-.29-.03-.5-.12-.55-.43-.06-.41-.05-1.78,0-2.21.03-.24.13-.4.37-.47ZM4.35,5.27H1.23v1.04h3.12v-1.04Z"/>
  <path d="M4.35,12.54v2.08h4.68v1.04H3.66c-.08,0-.36-.28-.36-.36v-2.76h1.04Z"/>
  <path d="M26.16,12.54v2.76c0,.08-.28.36-.36.36h-3.28v-1.04h2.6v-2.08h1.04Z"/>
</svg>